<mxfile host="app.diagrams.net" modified="2023-12-14T23:43:36.852Z" agent="Mozilla/5.0 (Windows NT 10.0; Win64; x64; rv:120.0) Gecko/20100101 Firefox/120.0" version="22.1.9" etag="_rOWe_daiH_MLxji4VEj" type="github">
  <diagram name="PÃ¡gina-1" id="8R409DBAw9HdIhrVHFF-">
    <mxGraphModel>
      <root>
        <mxCell id="0" />
        <mxCell id="1" parent="0" />
      </root>
    </mxGraphModel>
  </diagram>
</mxfile>
